<?xml version="1.0" encoding="UTF-8" standalone="no"?><!DOCTYPE svg PUBLIC "-//W3C//DTD SVG 1.1//EN" "http://www.w3.org/Graphics/SVG/1.1/DTD/svg11.dtd"><svg width="100%" height="100%" viewBox="0 0 3334 3334" version="1.1" xmlns="http://www.w3.org/2000/svg" xmlns:xlink="http://www.w3.org/1999/xlink" xml:space="preserve" xmlns:serif="http://www.serif.com/" style="fill-rule:evenodd;clip-rule:evenodd;stroke-linejoin:round;stroke-miterlimit:2;"><g><path d="M1239.21,935.417l427.454,218.091l427.454,-218.091c-39.567,-83.2 -61.709,-176.289 -61.709,-274.55c-0,-353.492 286.561,-640.054 640.054,-640.054c353.493,-0 640.054,286.562 640.054,640.054c0,353.493 -286.561,640.054 -640.054,640.054c-113.97,0 -220.983,-29.787 -313.677,-82.002l-209.339,427.22l232.342,455.93c87.225,-44.538 186.016,-69.657 290.674,-69.657c353.493,-0 640.054,286.561 640.054,640.054c0,353.493 -286.561,640.054 -640.054,640.054c-353.493,0 -640.054,-286.561 -640.054,-640.054c-0,-108.431 26.963,-210.565 74.55,-300.062l-440.295,-233.624l-440.295,233.624c47.587,89.497 74.549,191.631 74.549,300.062c0,353.493 -286.561,640.054 -640.054,640.054c-353.492,0 -640.054,-286.561 -640.054,-640.054c-0,-353.493 286.562,-640.054 640.054,-640.054c104.658,-0 203.45,25.119 290.674,69.657l232.342,-455.93l-209.338,-427.22c-92.695,52.215 -199.708,82.002 -313.678,82.002c-353.492,0 -640.054,-286.561 -640.054,-640.054c-0,-353.492 286.562,-640.054 640.054,-640.054c353.493,-0 640.054,286.562 640.054,640.054c0,98.261 -22.142,191.35 -61.708,274.55Zm-163.025,-83.176c26.871,-58.218 41.861,-123.046 41.861,-191.374c-0,-252.492 -204.69,-457.181 -457.182,-457.181c-252.492,-0 -457.181,204.689 -457.181,457.181c-0,252.492 204.689,457.182 457.181,457.182c85.104,-0 164.777,-23.254 233.012,-63.755l-131.977,-269.339c-27.549,22.459 -62.719,35.926 -101.035,35.926c-88.373,-0 -160.013,-71.641 -160.013,-160.014c-0,-88.373 71.64,-160.013 160.013,-160.013c88.373,-0 160.014,71.64 160.014,160.013c-0,19.693 -3.558,38.555 -10.065,55.979l265.372,135.395Zm-207.697,1412.8c-62.303,-31.814 -132.868,-49.756 -207.624,-49.756c-252.492,-0 -457.181,204.689 -457.181,457.181c-0,252.492 204.689,457.182 457.181,457.182c252.492,-0 457.182,-204.69 457.182,-457.182c-0,-77.45 -19.26,-150.403 -53.251,-214.329l-262.555,139.314c11.897,22.374 18.638,47.907 18.638,75.015c-0,88.373 -71.641,160.014 -160.014,160.014c-88.373,-0 -160.013,-71.641 -160.013,-160.014c-0,-88.373 71.64,-160.013 160.013,-160.013c26.165,-0 50.863,6.279 72.669,17.414l134.955,-264.826Zm1400.04,193.096c-33.991,63.926 -53.25,136.879 -53.25,214.329c-0,252.492 204.689,457.182 457.181,457.182c252.492,-0 457.182,-204.69 457.182,-457.182c-0,-252.492 -204.69,-457.181 -457.182,-457.181c-74.755,-0 -145.32,17.942 -207.624,49.756l134.956,264.826c21.806,-11.135 46.504,-17.414 72.668,-17.414c88.373,-0 160.014,71.64 160.014,160.013c-0,88.373 -71.641,160.014 -160.014,160.014c-88.373,-0 -160.013,-71.641 -160.013,-160.014c-0,-27.108 6.74,-52.641 18.637,-75.015l-262.555,-139.314Zm170.92,-1403.84c68.235,40.501 147.908,63.755 233.011,63.755c252.492,-0 457.182,-204.69 457.182,-457.182c-0,-252.492 -204.69,-457.181 -457.182,-457.181c-252.492,-0 -457.181,204.689 -457.181,457.181c-0,68.328 14.99,133.156 41.86,191.374l265.372,-135.395c-6.507,-17.424 -10.064,-36.286 -10.064,-55.979c-0,-88.373 71.64,-160.013 160.013,-160.013c88.373,-0 160.014,71.64 160.014,160.013c-0,88.373 -71.641,160.014 -160.014,160.014c-38.315,-0 -73.485,-13.467 -101.035,-35.926l-131.976,269.339Z" fill="#ffffff"/></g></svg>