<svg width="100%" height="100%" viewBox="0 0 800 800" version="1.1" xmlns="http://www.w3.org/2000/svg" xmlns:xlink="http://www.w3.org/1999/xlink" xml:space="preserve" xmlns:serif="http://www.serif.com/" style="fill-rule:evenodd;clip-rule:evenodd;stroke-linejoin:round;stroke-miterlimit:2;">
    <g transform="matrix(1.45455,0,0,1.45455,-181.854,-181.818)">
        <path d="M400.025,125C294.625,125 207.175,210.45 209.175,315.85C209.9,355.3 227.15,386.45 242.95,416.45C249,427.975 399.55,674.75 399.55,674.75L399.55,675L399.575,674.825L399.625,675L399.625,674.75L562.9,415.325C573.075,397.75 582.725,371.05 582.725,371.05C588.151,353.127 590.908,334.502 590.908,315.775C590.908,211.119 504.789,125 400.133,125C400.097,125 400.061,125 400.025,125ZM400.05,400.475C400.033,400.475 399.983,400.475 399.975,400.475C346.557,400.475 302.6,356.518 302.6,303.1C302.6,303.083 302.6,303.033 302.6,303.025C302.6,249.566 346.591,205.575 400.05,205.575C453.509,205.575 497.5,249.566 497.5,303.025C497.5,356.485 453.509,400.475 400.05,400.475Z" style="fill:#ffffff; fill-rule:nonzero;"/>
    </g>
</svg>
